<svg xmlns="http://www.w3.org/2000/svg" viewBox="0 0 23.82 56.15"><defs><style>.cls-1{fill:#fcfcfc;}</style></defs><title>Asset 2</title><g id="Layer_2" data-name="Layer 2"><g id="diseño"><g id="inicio"><path class="cls-1" d="M11.91,0a2.32,2.32,0,0,1,1.71.68,2.29,2.29,0,0,1,.67,1.7V48.12l5.48-5.47a2.3,2.3,0,0,1,3.34,0,2.31,2.31,0,0,1,0,3.33l-9.53,9.53a2,2,0,0,1-.79.52,3.07,3.07,0,0,1-.88.12A3,3,0,0,1,11,56a2,2,0,0,1-.8-.52L.71,46a2.31,2.31,0,0,1,0-3.33,2.3,2.3,0,0,1,3.34,0l5.48,5.47V2.38A2.29,2.29,0,0,1,10.2.68,2.32,2.32,0,0,1,11.91,0Z"/></g></g></g></svg>