<svg xmlns="http://www.w3.org/2000/svg" viewBox="0 0 750.79 604.91"><defs><style>.cls-1{fill:#2aace0;}.cls-2{fill:#ddbf0e;}.cls-3{fill:#0d6e94;}.cls-4{fill:#fff;}.cls-5{fill:none;stroke:#fff;stroke-linecap:round;stroke-miterlimit:10;stroke-width:11.51px;}</style></defs><title>Asset 1</title><g id="Layer_2" data-name="Layer 2"><g id="diseño"><g id="inicio"><path class="cls-1" d="M89.08,94.83s124-182.43,473.42,27.76L723,259.25S725.17,471,341.2,576.5l-13.36-170S316.4,157.68,89.08,94.83Z"/><path class="cls-2" d="M79.94,98.67S-40.17,186.21,47.76,423.09c0,0,84.06-74.5,140.21-32.51,0,0,51.36,21.05,25.45,40.64s-42.22,74.27,75.8,152.95l52-7.67s4.06-151.82-39.79-274S172.9,112.1,79.94,98.67Z"/><path class="cls-3" d="M743.31,251.66c-61.85-61.92-124.75-113.5-186.95-153.33C498.12,61,440.34,33.92,384.63,17.74,331.79,2.39,281.29-3,234.53,1.61,189.29,6.1,148.69,19.84,113.86,42.44,59.48,77.73,22.72,132.19,7.57,199.91-7.86,268.84.39,348,31.41,428.86l9.48,24.67L61,436.31c14.17-12.17,61.17-45.51,90.1-39.34,8.8,1.88,21.15,8.37,34.22,15.24,3.85,2,7.86,4.13,12,6.24A27.78,27.78,0,0,0,186.07,427c-21,26.49,3.16,89,26.09,123,24.15,35.74,54,54.91,84.4,54.91a73.69,73.69,0,0,0,21-3.09l31.82-9.35.11,0C423.35,570.25,518,538,594.35,485.19c80.85-55.91,131.17-126.5,153.83-215.79l2.61-10.26ZM202.61,379.23c-16.07-8.44-29.94-15.73-43.75-18.7-23.18-4.95-51.1,1.86-83,20.22-6.59,3.79-12.67,7.69-18,11.3C23.61,286.73,33.31,188.89,82.22,122.59a202.34,202.34,0,0,1,40.37,8.55c37.8,12,71.27,33.17,99.48,63,46.56,49.27,76.4,119.11,89.3,208.58C270,414.62,234.29,395.87,202.61,379.23ZM317.5,563,307,566.08c-16.92,5-34.32-2.13-51.73-21.27-13.33-14.66-25.35-35.44-32.94-57-5.13-14.59-6.82-25.47-7-32.06,13.91,3,33.45,1.71,59.33-3.77a418.94,418.94,0,0,0,41.12-11Q320.64,497.4,317.5,563Zm37.76-11.28c3.24-90.34-5.08-169.45-24.81-235.47-18-60.21-45.61-110.16-82-148.45-47.9-50.32-100.8-70.16-135.81-78a199.49,199.49,0,0,1,21.56-16.15c61.72-40,147-47.22,240.09-20.17,106.78,31,222.47,105.93,335.08,216.9C662.83,432.79,513.54,502.67,355.26,551.72Z"/><path d="M518.94,153.76l-13.94,12-6-7c-.13-.15-14-16-28.55-20.69l-96.14-4.71c0,1.09.05,2.17.05,3.26a105.34,105.34,0,1,1-2.25-21.77l101.43,5,1,.28c20.28,5.81,37.66,25.83,38.39,26.69Z"/><circle class="cls-4" cx="213.42" cy="83.32" r="11.51"/><path class="cls-5" d="M195.19,98.67S168.27,125.31,188,163.8"/></g></g></g></svg>