<?xml version="1.0" encoding="UTF-8"?><svg xmlns="http://www.w3.org/2000/svg" xmlns:xlink="http://www.w3.org/1999/xlink" viewBox="0 0 351.59 283.27"><defs><style>.f{fill:#fff;}.g{fill:none;stroke:#fff;stroke-linecap:round;stroke-miterlimit:10;stroke-width:5.39px;}.h{fill:#2aace0;}.i{filter:url(#d);}.j{fill:#ddbf0e;}.k{fill:#0d6e94;}</style><filter id="d" filterUnits="userSpaceOnUse"><feOffset dx="0" dy="0"/><feGaussianBlur result="e" stdDeviation="12.64"/><feFlood flood-color="#000" flood-opacity=".1"/><feComposite in2="e" operator="in"/><feComposite in="SourceGraphic"/></filter></defs><g id="a"/><g id="b"><g id="c"><g class="i"><path class="h" d="M309.87,44.41s-58.07-85.43-221.7,13L13,121.4s-1.01,99.14,178.8,148.57l6.26-79.61s5.36-116.52,111.81-145.95Z"/><path class="j" d="M314.16,46.21s56.25,40.99,15.07,151.92c0,0-39.37-34.89-65.66-15.22,0,0-24.05,9.86-11.92,19.03,12.13,9.17,19.77,34.78-35.5,71.63l-24.34-3.59s-1.9-71.09,18.64-128.33c20.54-57.24,60.18-89.14,103.71-95.43Z"/><path class="k" d="M0,121.36l1.22,4.8c10.61,41.81,34.18,74.87,72.04,101.05,35.76,24.73,80.08,39.83,114.69,50.23h.05l14.9,4.39c3.26,.97,6.55,1.45,9.82,1.45,14.21,0,28.21-8.97,39.52-25.71,10.74-15.89,22.05-45.18,12.22-57.59-1.45-1.84-3.24-3.18-5.25-4.02,1.94-.99,3.82-1.98,5.62-2.92,6.12-3.22,11.9-6.26,16.02-7.14,13.55-2.89,35.56,12.72,42.2,18.43l9.4,8.06,4.44-11.55c14.53-37.86,18.39-74.94,11.17-107.22-7.09-31.71-24.31-57.21-49.78-73.74-16.31-10.59-35.32-17.02-56.51-19.12-21.9-2.17-45.55,.36-70.29,7.55-26.09,7.58-53.15,20.28-80.42,37.74C61.92,64.7,32.47,88.86,3.5,117.85l-3.5,3.5Zm205.78,67.25c6.04-41.9,20.02-74.61,41.82-97.68,13.21-13.99,28.89-23.92,46.59-29.52,8.15-2.58,14.88-3.6,18.91-4,22.9,31.05,27.44,76.87,11.4,126.19-2.48-1.69-5.32-3.52-8.41-5.29-14.95-8.6-28.02-11.79-38.88-9.47-6.47,1.39-12.96,4.8-20.48,8.76-14.84,7.79-31.54,16.57-50.94,11.02Zm-2.05,17.89c5.52,1.79,12.34,3.69,19.25,5.15,12.12,2.57,21.27,3.15,27.79,1.77-.09,3.08-.88,8.18-3.28,15.01-3.55,10.1-9.18,19.83-15.43,26.7-8.15,8.96-16.3,12.31-24.22,9.96l-4.92-1.45c-.98-20.47-.71-39.53,.82-57.14ZM19.42,126.64C72.16,74.67,126.33,39.59,176.34,25.06c43.6-12.67,83.53-9.31,112.43,9.45,3.57,2.32,6.94,4.84,10.1,7.56-16.4,3.65-41.17,12.94-63.6,36.51-17.07,17.93-30,41.32-38.42,69.52-9.24,30.91-13.14,67.96-11.62,110.27C111.1,235.4,41.19,202.67,19.42,126.64Z"/><path d="M108.57,72.01l6.53,5.62,2.81-3.27c.06-.07,6.54-7.5,13.37-9.69l45.02-2.2c-.02,.51-.03,1.02-.03,1.52,0,27.27,22.11,49.38,49.38,49.38,27.27,0,49.38-22.11,49.38-49.38s-22.11-49.38-49.38-49.38c-23.78,0-43.63,16.8-48.32,39.19l-47.5,2.32-.48,.13c-9.49,2.72-17.64,12.1-17.98,12.5l-2.8,3.26Z"/><circle class="f" cx="251.65" cy="39.02" r="5.39"/><path class="g" d="M260.18,46.21s12.61,12.48,3.38,30.5"/></g></g></g></svg>