<?xml version="1.0" encoding="UTF-8"?><svg xmlns="http://www.w3.org/2000/svg" viewBox="0 0 59.34 59.33"><defs><style>.e{fill:#fff;}</style></defs><g id="a"/><g id="b"><g id="c"><g id="d"><path class="e" d="M29.68,14.45c-8.42,0-15.21,6.79-15.21,15.21s6.79,15.21,15.21,15.21,15.21-6.79,15.21-15.21-6.79-15.21-15.21-15.21Zm0,25.1c-5.44,0-9.89-4.43-9.89-9.89s4.43-9.89,9.89-9.89,9.89,4.43,9.89,9.89-4.45,9.89-9.89,9.89h0ZM49.06,13.83c0,1.97-1.59,3.55-3.55,3.55s-3.55-1.59-3.55-3.55,1.59-3.55,3.55-3.55,3.55,1.59,3.55,3.55Zm10.07,3.6c-.23-4.75-1.31-8.96-4.79-12.43C50.87,1.53,46.66,.45,41.91,.21,37.01-.07,22.33-.07,17.43,.21c-4.74,.23-8.95,1.31-12.43,4.78C1.52,8.46,.45,12.67,.21,17.42-.07,22.32-.07,37,.21,41.9c.23,4.75,1.31,8.96,4.79,12.43,3.48,3.47,7.68,4.55,12.43,4.79,4.9,.28,19.58,.28,24.48,0,4.75-.23,8.96-1.31,12.43-4.79,3.47-3.47,4.55-7.68,4.79-12.43,.28-4.9,.28-19.57,0-24.46h0Zm-6.33,29.72c-1.03,2.59-3.03,4.59-5.64,5.64-3.91,1.55-13.17,1.19-17.49,1.19s-13.6,.34-17.49-1.19c-2.59-1.03-4.59-3.03-5.64-5.64-1.55-3.91-1.19-13.17-1.19-17.49s-.34-13.6,1.19-17.49c1.03-2.59,3.03-4.59,5.64-5.64,3.91-1.55,13.17-1.19,17.49-1.19s13.6-.34,17.49,1.19c2.59,1.03,4.59,3.03,5.64,5.64,1.55,3.91,1.19,13.17,1.19,17.49s.36,13.6-1.19,17.49Z"/></g></g></g></svg>