<?xml version="1.0" encoding="UTF-8"?><svg xmlns="http://www.w3.org/2000/svg" xmlns:xlink="http://www.w3.org/1999/xlink" viewBox="0 0 870.93 481.63"><defs><style>.e{stroke-miterlimit:10;}.e,.f{fill:none;stroke:#0d6e94;stroke-width:8.16px;}.f{stroke-miterlimit:11;}.g{fill:#ddbf0e;}.h{fill:url(#d);}.i{fill:#0d6e94;}</style><linearGradient id="d" x1="638.08" y1="219.87" x2="169.02" y2="442.22" gradientTransform="matrix(1, 0, 0, 1, 0, 0)" gradientUnits="userSpaceOnUse"><stop offset=".2" stop-color="#2aace0"/><stop offset=".29" stop-color="#4cafb7"/><stop offset=".43" stop-color="#78b484"/><stop offset=".55" stop-color="#9cb859"/><stop offset=".68" stop-color="#b8bb38"/><stop offset=".8" stop-color="#ccbd21"/><stop offset=".91" stop-color="#d8be12"/><stop offset="1" stop-color="#ddbf0e"/></linearGradient></defs><g id="a"/><g id="b"><g id="c"><g><path class="h" d="M859.84,420.83s-156.27,101.46-342.82,13.1C245.7,564.93,33.29,359.33,30.77,356.88c209.47,132.06,422.01,14.05,422.01,14.05,0,0-94.5-83.46-39.26-352.23,0,0,38.86,160.77,149.31,247.49,55.04-55.55,103.61-57.42,125.38-33.67l1.61-.79,2.3,5.75c6.82,10.1,9.69,23.55,7.55,38.86-.01,.02-.01,.04-.01,.06-.29,2.05-.67,4.14-1.14,6.25l-2.17,11.91-1.16-.58c-.21,.56-.41,1.12-.63,1.68,0,0-9.09-7.83-17.12-8.52l-11.84,4h-.01c-4.96,2.59-10.85,5.42-17.59,5.06l-1.3,.37,12.48,2.26c1.39,.01,2.58-.12,3.48-.46,1.82-.69,2.88,.05,3.28,1.68l2.17,.39-2.84,6.89c-.72,2.55-1.85,5.36-3.32,8.03l-2.78,6.73-2.69,.64c-3.55,3.45-7.86,5.41-12.55,4.02-.56-.21-1.1-.42-1.62-.63-1.02-.4-1.96-.79-2.85-1.17-5.53-2.36-8.48-4.2-8.7-4.34l9.19,8.58s84.07,69.56,219.89,91.64Z"/><path class="g" d="M699.67,276.34s-.01,.04-.01,.06l-1.14,6.25-2.17,11.91-1.16-.58-15.31-7.66-2.44,.82-11.84,4h-.01l-17.59,5.06-1.3,.37,12.48,2.26,6.76,1.22,2.17,.39-2.84,6.89-3.32,8.03-2.78,6.73-2.69,.64-14.17,3.39-2.72-25.5,6.74-31.36,1.31-6.12,3.95-4.46,12.88-14.56,17.52-8.56,6.22-3.04,1.61-.79,2.3,5.75,5.89,14.72,1.66,24.14Z"/><path class="f" d="M639.95,329.19l-9.19-8.58c.22,.14,3.17,1.98,8.7,4.34,.89,.38,1.83,.77,2.85,1.17,.52,.21,1.06,.42,1.62,.63,4.69,1.39,9-.57,12.55-4.02,2.12-2.06,3.97-4.65,5.47-7.37,1.47-2.67,2.6-5.48,3.32-8.03,.83-2.97,1.1-5.59,.67-7.28-.4-1.63-1.46-2.37-3.28-1.68-.9,.34-2.09,.47-3.48,.46-3.63-.04-8.53-1.12-12.48-2.26-2.2-.63-4.11-1.28-5.34-1.78,2.29,.86,4.51,1.29,6.64,1.41,6.74,.36,12.63-2.47,17.59-5.06h.01c3.26-1.7,6.12-3.3,8.56-3.83,1.05-.22,2.16-.27,3.28-.17,8.03,.69,17.12,8.52,17.12,8.52,.22-.56,.42-1.12,.63-1.68,1.4-3.85,2.51-7.64,3.33-11.33,.47-2.11,.85-4.2,1.14-6.25,0-.02,0-.04,.01-.06,2.14-15.31-.73-28.76-7.55-38.86-1.18-1.76-2.49-3.41-3.91-4.96-21.77-23.75-70.34-21.88-125.38,33.67C452.38,179.47,413.52,18.7,413.52,18.7c-55.24,268.77,39.26,352.23,39.26,352.23,0,0-212.54,118.01-422.01-14.05,2.52,2.45,214.93,208.05,486.25,77.05,186.55,88.36,342.82-13.1,342.82-13.1-135.82-22.08-219.89-91.64-219.89-91.64Z"/><path class="e" d="M639.46,324.95c-5.2-90.98,50.36-90.55,50.36-90.55"/><path class="i" d="M617.9,245.13c6.3,2.18,11.93,5.67,18.07,3.51,3.96-1.48,6.62-3.99,10.73-6.58,.26,7.28-5.3,14.81-12.95,15.37-7.46,.59-14.39-5.16-15.85-12.3h0Z"/></g></g></g></svg>