<?xml version="1.0" encoding="UTF-8"?><svg xmlns="http://www.w3.org/2000/svg" viewBox="0 0 59.33 59.33"><defs><style>.e{fill:#fff;}</style></defs><g id="a"/><g id="b"><g id="c"><g id="d"><path class="e" d="M55.09,0H4.22C1.89,0,0,1.92,0,4.28V55.05c0,2.36,1.89,4.28,4.22,4.28H55.09c2.33,0,4.24-1.92,4.24-4.28V4.28C59.33,1.92,57.42,0,55.09,0ZM17.93,50.85H9.14V22.54h8.81v28.31h-.01ZM13.53,18.67c-2.82,0-5.1-2.29-5.1-5.1s2.28-5.1,5.1-5.1,5.1,2.29,5.1,5.1-2.28,5.1-5.1,5.1ZM50.89,50.85h-8.79v-13.77c0-3.28-.07-7.51-4.57-7.51s-5.28,3.58-5.28,7.27v14.01h-8.79V22.54h8.44v3.87h.12c1.18-2.22,4.05-4.57,8.33-4.57,8.9,0,10.55,5.87,10.55,13.49v15.52Z"/></g></g></g></svg>