<?xml version="1.0" encoding="UTF-8"?><svg xmlns="http://www.w3.org/2000/svg" xmlns:xlink="http://www.w3.org/1999/xlink" viewBox="0 0 870.93 680.8"><defs><style>.e,.f{fill:none;stroke-width:8.16px;}.e,.f,.g{stroke:#0d6e94;}.e,.g{stroke-miterlimit:10;}.f{stroke-miterlimit:11;}.h,.g{fill:#ddbf0e;}.i{fill:url(#d);}.j{fill:#0d6e94;}.g{stroke-width:7.61px;}</style><linearGradient id="d" x1="638.08" y1="219.87" x2="169.02" y2="442.22" gradientTransform="matrix(1, 0, 0, 1, 0, 0)" gradientUnits="userSpaceOnUse"><stop offset=".2" stop-color="#2aace0"/><stop offset=".29" stop-color="#4cafb7"/><stop offset=".43" stop-color="#78b484"/><stop offset=".55" stop-color="#9cb859"/><stop offset=".68" stop-color="#b8bb38"/><stop offset=".8" stop-color="#ccbd21"/><stop offset=".91" stop-color="#d8be12"/><stop offset="1" stop-color="#ddbf0e"/></linearGradient></defs><g id="a"/><g id="b"><g id="c"><g><g><path class="i" d="M859.84,420.83s-156.27,101.46-342.82,13.1C245.7,564.93,33.29,359.33,30.77,356.88c209.47,132.06,422.01,14.05,422.01,14.05,0,0-94.5-83.46-39.26-352.23,0,0,38.86,160.77,149.31,247.49,55.04-55.55,103.61-57.42,125.38-33.67l1.61-.79,2.3,5.75c6.82,10.1,9.69,23.55,7.55,38.86-.01,.02-.01,.04-.01,.06-.29,2.05-.67,4.14-1.14,6.25l-2.17,11.91-1.16-.58c-.21,.56-.41,1.12-.63,1.68,0,0-9.09-7.83-17.12-8.52l-11.84,4h-.01c-4.96,2.59-10.85,5.42-17.59,5.06l-1.3,.37,12.48,2.26c1.39,.01,2.58-.12,3.48-.46,1.82-.69,2.88,.05,3.28,1.68l2.17,.39-2.84,6.89c-.72,2.55-1.85,5.36-3.32,8.03l-2.78,6.73-2.69,.64c-3.55,3.45-7.86,5.41-12.55,4.02-.56-.21-1.1-.42-1.62-.63-1.02-.4-1.96-.79-2.85-1.17-5.53-2.36-8.48-4.2-8.7-4.34l9.19,8.58s84.07,69.56,219.89,91.64Z"/><path class="h" d="M699.67,276.34s-.01,.04-.01,.06l-1.14,6.25-2.17,11.91-1.16-.58-15.31-7.66-2.44,.82-11.84,4h-.01l-17.59,5.06-1.3,.37,12.48,2.26,6.76,1.22,2.17,.39-2.84,6.89-3.32,8.03-2.78,6.73-2.69,.64-14.17,3.39-2.72-25.5,6.74-31.36,1.31-6.12,3.95-4.46,12.88-14.56,17.52-8.56,6.22-3.04,1.61-.79,2.3,5.75,5.89,14.72,1.66,24.14Z"/><path class="f" d="M639.95,329.19l-9.19-8.58c.22,.14,3.17,1.98,8.7,4.34,.89,.38,1.83,.77,2.85,1.17,.52,.21,1.06,.42,1.62,.63,4.69,1.39,9-.57,12.55-4.02,2.12-2.06,3.97-4.65,5.47-7.37,1.47-2.67,2.6-5.48,3.32-8.03,.83-2.97,1.1-5.59,.67-7.28-.4-1.63-1.46-2.37-3.28-1.68-.9,.34-2.09,.47-3.48,.46-3.63-.04-8.53-1.12-12.48-2.26-2.2-.63-4.11-1.28-5.34-1.78,2.29,.86,4.51,1.29,6.64,1.41,6.74,.36,12.63-2.47,17.59-5.06h.01c3.26-1.7,6.12-3.3,8.56-3.83,1.05-.22,2.16-.27,3.28-.17,8.03,.69,17.12,8.52,17.12,8.52,.22-.56,.42-1.12,.63-1.68,1.4-3.85,2.51-7.64,3.33-11.33,.47-2.11,.85-4.2,1.14-6.25,0-.02,0-.04,.01-.06,2.14-15.31-.73-28.76-7.55-38.86-1.18-1.76-2.49-3.41-3.91-4.96-21.77-23.75-70.34-21.88-125.38,33.67C452.38,179.47,413.52,18.7,413.52,18.7c-55.24,268.77,39.26,352.23,39.26,352.23,0,0-212.54,118.01-422.01-14.05,2.52,2.45,214.93,208.05,486.25,77.05,186.55,88.36,342.82-13.1,342.82-13.1-135.82-22.08-219.89-91.64-219.89-91.64Z"/><path class="e" d="M639.46,324.95c-5.2-90.98,50.36-90.55,50.36-90.55"/><path class="j" d="M617.9,245.13c6.3,2.18,11.93,5.67,18.07,3.51,3.96-1.48,6.62-3.99,10.73-6.58,.26,7.28-5.3,14.81-12.95,15.37-7.46,.59-14.39-5.16-15.85-12.3h0Z"/></g><g><path class="g" d="M193.91,504.79c1.09-3.48,3.33-5.23,6.74-5.23h34.88c3.4,0,4.56,1.74,3.47,5.23l-39.16,125.29h51.4c3.16,0,4.21,1.7,3.14,5.1l-10.18,32.57c-1.06,3.4-3.18,5.1-6.34,5.1h-91.39c-3.4,0-4.57-1.7-3.51-5.1l50.93-162.96Z"/><path class="g" d="M408.05,667.76c.15,3.4-1.4,5.1-4.63,5.1h-37.67c-1.7,0-3.03-.4-4-1.22-.96-.81-1.41-2.11-1.34-3.89l1.05-17.74h-50.55l-9.92,17.74c-1.04,1.78-2.3,3.08-3.77,3.89-1.47,.81-3.01,1.22-4.63,1.22h-37.79c-3.24,0-3.72-1.7-1.44-5.1l102.34-162.96c2.22-3.48,5.04-5.23,8.44-5.23h38.28c3.4,0,5.12,1.74,5.17,5.23l.47,162.96Zm-73.79-59.42h29.89l2.83-44.84,.81-13.85-8.46,13.85-25.07,44.84Z"/><path class="g" d="M541.15,584.27l20.82,83.49c.38,1.62,.19,2.88-.57,3.77-.77,.89-1.96,1.34-3.58,1.34h-39.62c-1.7,0-2.9-.32-3.59-.97-.69-.65-1.31-2.02-1.87-4.13l-6.22-41.92-1.23-8.51-6.18,8.51-32.18,41.92c-1.87,2.11-3.38,3.48-4.51,4.13-1.14,.65-2.55,.97-4.25,.97h-39.49c-1.62,0-2.53-.44-2.74-1.34-.21-.89,.38-2.14,1.79-3.77l72.84-83.36-19.96-79.6c-.32-1.3-.09-2.49,.7-3.59,.79-1.09,1.99-1.64,3.61-1.64h39.98c1.7,0,2.93,.47,3.7,1.4,.76,.93,1.33,2.21,1.72,3.83l5.15,39.13,.58,8.63,5.49-8.63,29.61-39.13c1.4-1.62,2.79-2.9,4.17-3.83,1.38-.93,2.93-1.4,4.63-1.4h39.86c1.62,0,2.5,.55,2.65,1.64,.14,1.09-.39,2.29-1.61,3.59l-69.68,79.48Z"/><path class="g" d="M593.3,563.13c3.14-10.04,7.86-19.2,14.17-27.46,6.31-8.26,13.66-15.37,22.04-21.33,8.38-5.95,17.52-10.57,27.42-13.85,9.9-3.28,19.95-4.92,30.16-4.92s19.24,1.64,27.08,4.92c7.84,3.28,14.12,7.9,18.82,13.85,4.7,5.95,7.62,13.08,8.75,21.39,1.13,8.31,.14,17.44-2.98,27.4l-14.55,46.54c-3.11,9.97-7.83,19.08-14.13,27.34-6.31,8.26-13.67,15.35-22.08,21.27-8.41,5.91-17.55,10.51-27.4,13.79-9.86,3.28-19.89,4.92-30.1,4.92s-19.36-1.64-27.2-4.92c-7.85-3.28-14.11-7.88-18.78-13.79-4.67-5.91-7.58-13-8.73-21.27-1.14-8.26-.16-17.38,2.96-27.34l14.55-46.54Zm31.28,43.38c-1.34,4.3-1.9,8.22-1.68,11.79,.22,3.57,1.15,6.62,2.78,9.17,1.63,2.55,3.94,4.56,6.93,6.02,2.99,1.46,6.59,2.19,10.8,2.19s8.25-.73,12.11-2.19c3.86-1.46,7.4-3.46,10.63-6.02,3.23-2.55,6.07-5.61,8.52-9.17,2.45-3.57,4.35-7.49,5.69-11.79l12.65-40.47c1.32-4.21,1.88-8.1,1.7-11.67-.18-3.56-1.09-6.64-2.7-9.24-1.62-2.59-3.92-4.62-6.91-6.07-2.99-1.46-6.59-2.19-10.8-2.19s-8.27,.73-12.17,2.19c-3.9,1.46-7.47,3.48-10.71,6.07-3.24,2.59-6.09,5.67-8.54,9.24-2.45,3.57-4.33,7.46-5.65,11.67l-12.65,40.47Z"/></g></g></g></g></svg>