<?xml version="1.0" encoding="UTF-8"?><svg xmlns="http://www.w3.org/2000/svg" viewBox="0 0 84.38 59.33"><defs><style>.e{fill:#fff;}</style></defs><g id="a"/><g id="b"><g id="c"><g id="d"><path class="e" d="M82.62,9.28c-.97-3.65-3.83-6.53-7.46-7.51-6.58-1.77-32.97-1.77-32.97-1.77,0,0-26.39,0-32.97,1.77-3.63,.98-6.49,3.85-7.46,7.51C0,15.91,0,29.72,0,29.72c0,0,0,13.82,1.76,20.44,.97,3.65,3.83,6.41,7.46,7.39,6.58,1.77,32.97,1.77,32.97,1.77,0,0,26.39,0,32.97-1.77,3.63-.98,6.49-3.73,7.46-7.39,1.76-6.62,1.76-20.44,1.76-20.44,0,0,0-13.82-1.76-20.44ZM33.56,42.27V17.18l22.05,12.55-22.05,12.55h0Z"/></g></g></g></svg>